<?xml version="1.0" encoding="UTF-8"?>
<svg id="_レイヤー_1" data-name="レイヤー 1" xmlns="http://www.w3.org/2000/svg" xmlns:xlink="http://www.w3.org/1999/xlink" viewBox="0 0 677.48 107.3">
  <defs>
    <style>
      .cls-1 {
        fill: #fff;
      }

      .cls-2 {
        fill: url(#_名称未設定グラデーション_188);
      }

      .cls-3 {
        fill: #b8c4b7;
      }
    </style>
    <linearGradient id="_名称未設定グラデーション_188" data-name="名称未設定グラデーション 188" x1="-8.23" y1="103.18" x2="140.68" y2="14.66" gradientUnits="userSpaceOnUse">
      <stop offset="0" stop-color="#a8c5bd"/>
      <stop offset=".08" stop-color="#b0c5be"/>
      <stop offset=".2" stop-color="#c9c8c1"/>
      <stop offset=".25" stop-color="#d4c9c3"/>
      <stop offset=".5" stop-color="#c27c6b"/>
      <stop offset=".75" stop-color="#a86363"/>
      <stop offset=".8" stop-color="#a87c7a"/>
      <stop offset=".89" stop-color="#a8a39e"/>
      <stop offset=".96" stop-color="#a8bcb4"/>
      <stop offset="1" stop-color="#a8c5bd"/>
    </linearGradient>
  </defs>
  <g>
    <path class="cls-3" d="M164.97,103.8v-26.73l-24.35-42.27h11.48l17.62,32.17,18.02-32.17h11.38l-24.06,42.27v26.73h-10.1Z"/>
    <path class="cls-3" d="M250.9,105.08c-6.4,0-12.03-1.49-16.88-4.46-4.85-2.97-8.63-7.14-11.34-12.52-2.71-5.38-4.06-11.63-4.06-18.76s1.35-13.48,4.06-18.86c2.71-5.38,6.48-9.55,11.34-12.52,4.85-2.97,10.48-4.46,16.88-4.46s12.24,1.48,17.13,4.46c4.88,2.97,8.68,7.15,11.38,12.52,2.71,5.38,4.06,11.67,4.06,18.86s-1.37,13.38-4.11,18.76c-2.74,5.38-6.55,9.55-11.43,12.52-4.88,2.97-10.56,4.46-17.03,4.46ZM250.9,95.48c4.62,0,8.58-1.07,11.88-3.22,3.3-2.14,5.87-5.18,7.72-9.11,1.85-3.93,2.77-8.53,2.77-13.81s-.93-9.98-2.77-13.91c-1.85-3.93-4.42-6.96-7.72-9.11-3.3-2.14-7.26-3.22-11.88-3.22s-8.4,1.06-11.73,3.17c-3.33,2.11-5.91,5.13-7.72,9.06-1.82,3.93-2.72,8.6-2.72,14.01s.91,9.98,2.72,13.91c1.81,3.93,4.39,6.95,7.72,9.06,3.33,2.11,7.24,3.17,11.73,3.17Z"/>
    <path class="cls-3" d="M343.16,105.08c-6.2,0-11.68-1.49-16.43-4.46-4.75-2.97-8.48-7.16-11.19-12.57-2.71-5.41-4.06-11.68-4.06-18.81s1.35-13.38,4.06-18.76c2.71-5.38,6.48-9.55,11.34-12.52,4.85-2.97,10.48-4.46,16.88-4.46,7.06,0,13.18,1.75,18.36,5.25,5.18,3.5,8.89,8.35,11.14,14.55l-9.41,3.47c-1.65-4.29-4.19-7.64-7.62-10.05-3.43-2.41-7.59-3.61-12.47-3.61-4.49,0-8.4,1.07-11.73,3.22-3.33,2.15-5.91,5.15-7.72,9.01-1.82,3.86-2.72,8.5-2.72,13.91s.91,10.07,2.72,13.96c1.81,3.9,4.39,6.91,7.72,9.06,3.33,2.15,7.24,3.22,11.73,3.22,2.31,0,4.67-.31,7.08-.94,2.41-.63,4.64-1.75,6.68-3.37,2.04-1.62,3.7-3.81,4.95-6.58,1.25-2.77,1.88-6.34,1.88-10.69v-4.65l2.28,6.93h-19.6v-9.01h26.24v36.63h-8.91l-1.39-12.67,1.68,1.29c-1.19,2.9-2.87,5.3-5.05,7.18s-4.67,3.27-7.47,4.16c-2.81.89-5.79,1.34-8.96,1.34Z"/>
    <path class="cls-3" d="M399.59,103.8l26.83-69h7.82l26.73,69h-10.99l-19.6-54.35-19.7,54.35h-11.09ZM415.43,88.45l3.07-9.01h23.56l3.37,9.01h-30Z"/>
    <path class="cls-3" d="M488.69,103.8V34.79h10.49l34.35,55.94h-2.38v-55.94h10v69h-10.69l-34.06-56.03h2.38v56.03h-10.1Z"/>
    <path class="cls-3" d="M574.82,103.8V34.79h10.1v69h-10.1Z"/>
    <path class="cls-3" d="M647.98,105.08c-6.4,0-12.03-1.49-16.88-4.46-4.85-2.97-8.63-7.16-11.34-12.57-2.71-5.41-4.06-11.68-4.06-18.81s1.35-13.38,4.06-18.76c2.71-5.38,6.49-9.55,11.34-12.52,4.85-2.97,10.48-4.46,16.88-4.46,7.06,0,13.18,1.75,18.36,5.25,5.18,3.5,8.89,8.35,11.14,14.55l-9.41,3.47c-1.65-4.29-4.19-7.64-7.62-10.05-3.43-2.41-7.59-3.61-12.47-3.61-4.49,0-8.4,1.07-11.73,3.22-3.33,2.15-5.91,5.15-7.72,9.01-1.82,3.86-2.72,8.5-2.72,13.91s.91,10.07,2.72,13.96c1.81,3.9,4.39,6.91,7.72,9.06,3.33,2.15,7.24,3.22,11.73,3.22,4.88,0,9.04-1.2,12.47-3.61,3.43-2.41,5.97-5.76,7.62-10.05l9.41,3.37c-2.25,6.14-5.96,10.99-11.14,14.55-5.18,3.56-11.3,5.35-18.36,5.35Z"/>
  </g>
  <g>
    <path class="cls-2" d="M46.43,82.7l2.11-3.81-1.56-.18s3.42-7.35,3.35-8.59c-.11-1.91-4.52-15.26-4.53-14.76-.07,2.36-4.54,15.6-6.8,17.41-1.81,1.46-8.42,6.47-14.64,8.6s-14.73,9.66-19.49,9.88c0,0-2.36.08.56-1.15,2.92-1.23,1.44-.9,1.44-.9,0,0-6.09-1.19-6.09-1.89,0-.05.06-.09.11-.08l3.13.18-3.93-1.46c-.11-.04-.11-.18,0-.22.5-.21,1.65-.54,3.04-.04,1.86.67,3.66.12,3.66.12,0,0-3.06-2.75-1.91-3.95.76-.8,1.01-.97,1.1-1,.03-.01.05-.04.06-.07l.13-.61s.06-1.4,5.93.74c0,0,2.99.31,4.76.63,1.93.34,17.9-9.36,19.7-14.42,1.79-5.05,3.04-11.17,3.27-17.31.36-9.47,6.1-8.48,8.38-9.07,2.87-.74,4.28-1.07,5.8-2,2.26-1.4,3.61-3.67,2.89-8.84l-.04.09s-2.08-4.46-3.99-5.6c-2.33-1.39-2.35-6.36-1.18-6.42-.54-3.25-.65-2.71-.28-5.34.54-3.84,4.2-6.41,4.2-6.41l.07-1.84C55.6,0,60.75,0,60.75,0c0,0,6.63-.44,6.16,4.57v1.5s3.61,2.71,4.07,7.01-.47,4.97-.47,4.97c0,0,1.66,3.8-1.78,6.33-.57.14-2.24,4.03-2.9,5.2-.12.21-.2.44-.24.68-.27,1.65-.81,7.49,3.49,8.85,2.96.94,7.5,1.04,10.29,2.82,2.68,1.71,3.23,6.47,3.23,9.09.01,5.91,1.96,15.53,5.04,19.07,5.41,6.21,18.06,11.54,18.06,11.54,0,0,10.1-3.02,10.33-1.53s2.18,1.76,1.45,3.52-1.7,2.58-1.7,2.58c0,0,6.65-1.49,6.8-.26l-2.96.89s1.68.23,1.5.58-4.47,2.3-5.18,2.03,2.07,1.42,2.07,1.42c.65,2.85-11.75-4.86-14.89-7.04-.28-.19-.58-.36-.9-.49-2.78-1.12-16.51-7.68-17.87-9.45-.6-.78-5.48-6.29-7.86-18.73-.27-1.43-4.97,13.63-4.5,15l3.68,8.36-1.41.26s.91,4.8,2.71,4.63c2.98-.29,19.84-1.57,23.38,0,2.72,1.2,6.51,3.96,4.27,8.39-3.49,6.91-28.74,8.68-27.64,8.7,1.46.04,9.55,1.37,10.74,5.83.14.51-.29,1-.84.97-1.39-.07-4.04-.31-6.53-1.07-2.16-.66-38.92,1.5-39.28-.3,0,0-7.43,2.04-7.43,1.13,0-3.63,4.08-5.87,8.74-6.22,3.02-.23-21.07-2.92-23.13-8.84-.93-2.67-1.07-4.46-.97-5.58.08-.92,1.12-1.27,1.57-2.08,2.22-4.02,22.12-.58,25.57-.97.41-.05.8-.2.94-.57"/>
    <path class="cls-1" d="M114.33,81.24s-2.04.19-1.6,1.87,1.02,1.52,1.31,1.63,1.32-.43,2.28-1.6-2-1.9-2-1.9Z"/>
    <path class="cls-1" d="M7.72,81.18s-2.62,1.6-1.82,2.03.36,1.54,2.14,1.5,1.17-.55,1.55-1.48-1.42-2.36-1.87-2.06Z"/>
  </g>
</svg>